<?xml version="1.0" standalone="no"?>
<!DOCTYPE svg PUBLIC "-//W3C//DTD SVG 20010904//EN"
 "http://www.w3.org/TR/2001/REC-SVG-20010904/DTD/svg10.dtd">
<svg version="1.0" xmlns="http://www.w3.org/2000/svg"
 width="300.000000pt" height="300.000000pt" viewBox="0 0 300.000000 300.000000"
 preserveAspectRatio="xMidYMid meet">
<metadata>
Created by potrace 1.14, written by Peter Selinger 2001-2017
</metadata>
<g transform="translate(0.000000,300.000000) scale(0.100000,-0.100000)"
fill="#000000" stroke="none">
<path d="M965 2990 c-88 -14 -110 -19 -188 -45 -313 -102 -571 -342 -695 -645
-26 -62 -60 -183 -70 -250 -12 -74 -7 -300 7 -375 44 -227 150 -426 313 -587
109 -108 216 -180 361 -244 l37 -17 -18 -31 c-170 -289 -422 -737 -422 -749 0
-8 7 -23 16 -31 14 -14 137 -16 1203 -16 1138 0 1189 1 1204 18 24 27 22 36
-27 121 -24 42 -53 92 -64 111 -11 19 -52 91 -92 160 -40 69 -83 143 -95 165
-13 22 -104 181 -204 354 -100 172 -181 316 -181 320 0 3 15 31 33 61 155 257
196 588 110 890 -61 218 -232 456 -424 592 -116 83 -273 152 -419 184 -75 17
-312 25 -385 14z"/>
</g>
</svg>
