<?xml version="1.0" standalone="no"?>
<!DOCTYPE svg PUBLIC "-//W3C//DTD SVG 20010904//EN"
 "http://www.w3.org/TR/2001/REC-SVG-20010904/DTD/svg10.dtd">
<svg version="1.0" xmlns="http://www.w3.org/2000/svg"
 width="450.000000pt" height="450.000000pt" viewBox="0 0 450.000000 450.000000"
 preserveAspectRatio="xMidYMid meet">
<metadata>
Created by potrace 1.14, written by Peter Selinger 2001-2017
</metadata>
<g transform="translate(0.000000,450.000000) scale(0.100000,-0.100000)"
fill="#000000" stroke="none">
<path d="M1990 4485 c-106 -13 -231 -37 -305 -57 -22 -7 -42 -12 -45 -13 -43
-10 -144 -45 -224 -76 -567 -226 -1016 -672 -1248 -1239 -49 -119 -99 -276
-114 -360 -2 -14 -7 -36 -10 -50 -7 -28 -7 -33 -25 -140 -26 -164 -18 -526 15
-686 2 -12 7 -37 10 -55 5 -28 27 -121 39 -164 52 -181 131 -367 229 -540 29
-50 141 -213 165 -240 10 -11 36 -43 58 -70 60 -74 209 -220 310 -303 50 -41
176 -128 248 -171 279 -168 592 -271 937 -310 72 -9 424 -6 485 3 17 3 50 8
75 11 184 27 441 106 617 190 108 51 251 130 263 146 3 3 16 12 29 19 14 7 30
17 35 21 6 5 45 35 86 66 101 78 130 103 233 208 173 175 290 338 407 570 105
207 175 426 216 670 25 148 24 552 -1 668 -2 12 -6 36 -9 52 -12 77 -30 155
-57 246 -176 592 -582 1085 -1124 1366 -164 85 -421 178 -541 197 -21 4 -55
11 -74 16 -19 5 -57 12 -85 15 -27 4 -61 9 -75 11 -64 12 -423 10 -520 -1z"/>
</g>
</svg>
